<svg width="194" height="38" viewBox="0 0 194 38" fill="none" xmlns="http://www.w3.org/2000/svg">
<rect width="194" height="38" rx="5" transform="matrix(1 0 0 -1 0 38)" fill="#133C82"/>
<path d="M11.52 24C11.4133 24 11.3173 23.9627 11.232 23.888C11.1573 23.8027 11.12 23.7067 11.12 23.6V13.2C11.12 13.0827 11.1573 12.9867 11.232 12.912C11.3173 12.8373 11.4133 12.8 11.52 12.8H13.216C13.4827 12.8 13.664 12.9013 13.76 13.104L17.664 19.248V13.2C17.664 13.0827 17.7013 12.9867 17.776 12.912C17.8613 12.8373 17.9573 12.8 18.064 12.8H19.984C20.1013 12.8 20.1973 12.8373 20.272 12.912C20.3467 12.9867 20.384 13.0827 20.384 13.2V23.584C20.384 23.7013 20.3467 23.8027 20.272 23.888C20.1973 23.9627 20.1013 24 19.984 24H18.272C18.0373 24 17.8613 23.8987 17.744 23.696L13.84 17.776V23.6C13.84 23.7067 13.8027 23.8027 13.728 23.888C13.6533 23.9627 13.5573 24 13.44 24H11.52ZM21.98 24C21.8947 24 21.8147 23.968 21.74 23.904C21.676 23.8293 21.644 23.7493 21.644 23.664C21.644 23.6 21.6493 23.552 21.66 23.52L25.42 13.248C25.452 13.12 25.5213 13.0133 25.628 12.928C25.7347 12.8427 25.8733 12.8 26.044 12.8H28.412C28.5827 12.8 28.7213 12.8427 28.828 12.928C28.9347 13.0133 29.004 13.12 29.036 13.248L32.78 23.52L32.812 23.664C32.812 23.7493 32.7747 23.8293 32.7 23.904C32.636 23.968 32.556 24 32.46 24H30.492C30.236 24 30.0653 23.888 29.98 23.664L29.356 22.032H25.084L24.476 23.664C24.3907 23.888 24.2147 24 23.948 24H21.98ZM28.716 19.728L27.228 15.504L25.74 19.728H28.716ZM34.4731 24C34.3665 24 34.2705 23.9627 34.1851 23.888C34.1105 23.8027 34.0731 23.7067 34.0731 23.6V13.2C34.0731 13.0827 34.1105 12.9867 34.1851 12.912C34.2705 12.8373 34.3665 12.8 34.4731 12.8H36.2011C36.4571 12.8 36.6438 12.9173 36.7611 13.152L39.5771 18.192L42.3931 13.152C42.5105 12.9173 42.6971 12.8 42.9531 12.8H44.6651C44.7825 12.8 44.8785 12.8373 44.9531 12.912C45.0385 12.9867 45.0811 13.0827 45.0811 13.2V23.6C45.0811 23.7173 45.0385 23.8133 44.9531 23.888C44.8785 23.9627 44.7825 24 44.6651 24H42.7611C42.6438 24 42.5425 23.9627 42.4571 23.888C42.3825 23.8133 42.3451 23.7173 42.3451 23.6V17.6L40.5531 20.944C40.4145 21.1893 40.2278 21.312 39.9931 21.312H39.1611C39.0225 21.312 38.9105 21.28 38.8251 21.216C38.7398 21.152 38.6651 21.0613 38.6011 20.944L36.7931 17.6V23.6C36.7931 23.7067 36.7558 23.8027 36.6811 23.888C36.6065 23.9627 36.5105 24 36.3931 24H34.4731ZM46.6831 24C46.5978 24 46.5178 23.968 46.4431 23.904C46.3791 23.8293 46.3471 23.7493 46.3471 23.664C46.3471 23.6 46.3525 23.552 46.3631 23.52L50.1231 13.248C50.1551 13.12 50.2245 13.0133 50.3311 12.928C50.4378 12.8427 50.5765 12.8 50.7471 12.8H53.1151C53.2858 12.8 53.4245 12.8427 53.5311 12.928C53.6378 13.0133 53.7071 13.12 53.7391 13.248L57.4831 23.52L57.5151 23.664C57.5151 23.7493 57.4778 23.8293 57.4031 23.904C57.3391 23.968 57.2591 24 57.1631 24H55.1951C54.9391 24 54.7685 23.888 54.6831 23.664L54.0591 22.032H49.7871L49.1791 23.664C49.0938 23.888 48.9178 24 48.6511 24H46.6831ZM53.4191 19.728L51.9311 15.504L50.4431 19.728H53.4191ZM59.1763 24C59.0696 24 58.9736 23.9627 58.8883 23.888C58.8136 23.8027 58.7763 23.7067 58.7763 23.6V13.2C58.7763 13.0827 58.8136 12.9867 58.8883 12.912C58.9736 12.8373 59.0696 12.8 59.1763 12.8H60.8723C61.1389 12.8 61.3203 12.9013 61.4163 13.104L65.3203 19.248V13.2C65.3203 13.0827 65.3576 12.9867 65.4323 12.912C65.5176 12.8373 65.6136 12.8 65.7203 12.8H67.6403C67.7576 12.8 67.8536 12.8373 67.9283 12.912C68.0029 12.9867 68.0403 13.0827 68.0403 13.2V23.584C68.0403 23.7013 68.0029 23.8027 67.9283 23.888C67.8536 23.9627 67.7576 24 67.6403 24H65.9283C65.6936 24 65.5176 23.8987 65.4003 23.696L61.4963 17.776V23.6C61.4963 23.7067 61.4589 23.8027 61.3843 23.888C61.3096 23.9627 61.2136 24 61.0963 24H59.1763ZM74.9003 24.16C73.3643 24.16 72.1643 23.7867 71.3003 23.04C70.4363 22.2827 69.9776 21.2107 69.9243 19.824C69.9136 19.5147 69.9083 19.024 69.9083 18.352C69.9083 17.68 69.9136 17.1893 69.9243 16.88C69.9776 15.5253 70.4416 14.48 71.3163 13.744C72.2016 13.008 73.3963 12.64 74.9003 12.64C75.9136 12.64 76.7936 12.8053 77.5403 13.136C78.2976 13.4667 78.8736 13.888 79.2683 14.4C79.6736 14.912 79.8869 15.44 79.9083 15.984C79.9083 16.08 79.8709 16.16 79.7963 16.224C79.7323 16.288 79.6523 16.32 79.5563 16.32H77.2203C77.1136 16.32 77.0283 16.304 76.9643 16.272C76.9003 16.24 76.8469 16.1813 76.8043 16.096C76.6656 15.7867 76.4469 15.52 76.1483 15.296C75.8496 15.0613 75.4336 14.944 74.9003 14.944C73.6309 14.944 72.9643 15.616 72.9003 16.96C72.8896 17.2587 72.8843 17.7227 72.8843 18.352C72.8843 18.9707 72.8896 19.4347 72.9003 19.744C72.9643 21.152 73.6469 21.856 74.9483 21.856C75.5776 21.856 76.0789 21.696 76.4523 21.376C76.8363 21.0453 77.0283 20.544 77.0283 19.872V19.568H75.5243C75.4069 19.568 75.3109 19.5307 75.2363 19.456C75.1616 19.3707 75.1243 19.2693 75.1243 19.152V17.968C75.1243 17.8507 75.1616 17.7547 75.2363 17.68C75.3109 17.5947 75.4069 17.552 75.5243 17.552H79.5563C79.6736 17.552 79.7696 17.5947 79.8443 17.68C79.9189 17.7547 79.9563 17.8507 79.9563 17.968V19.792C79.9563 20.6987 79.7483 21.4827 79.3323 22.144C78.9163 22.7947 78.3243 23.296 77.5563 23.648C76.7989 23.9893 75.9136 24.16 74.9003 24.16ZM80.9019 24C80.8165 24 80.7365 23.968 80.6619 23.904C80.5979 23.8293 80.5659 23.7493 80.5659 23.664C80.5659 23.6 80.5712 23.552 80.5819 23.52L84.3419 13.248C84.3739 13.12 84.4432 13.0133 84.5499 12.928C84.6565 12.8427 84.7952 12.8 84.9659 12.8H87.3339C87.5045 12.8 87.6432 12.8427 87.7499 12.928C87.8565 13.0133 87.9259 13.12 87.9579 13.248L91.7019 23.52L91.7339 23.664C91.7339 23.7493 91.6965 23.8293 91.6219 23.904C91.5579 23.968 91.4779 24 91.3819 24H89.4139C89.1579 24 88.9872 23.888 88.9019 23.664L88.2779 22.032H84.0059L83.3979 23.664C83.3125 23.888 83.1365 24 82.8699 24H80.9019ZM87.6379 19.728L86.1499 15.504L84.6619 19.728H87.6379ZM93.395 24C93.2883 24 93.1923 23.9627 93.107 23.888C93.0323 23.8027 92.995 23.7067 92.995 23.6V13.2C92.995 13.0827 93.0323 12.9867 93.107 12.912C93.1923 12.8373 93.2883 12.8 93.395 12.8H95.091C95.3577 12.8 95.539 12.9013 95.635 13.104L99.539 19.248V13.2C99.539 13.0827 99.5763 12.9867 99.651 12.912C99.7363 12.8373 99.8323 12.8 99.939 12.8H101.859C101.976 12.8 102.072 12.8373 102.147 12.912C102.222 12.9867 102.259 13.0827 102.259 13.2V23.584C102.259 23.7013 102.222 23.8027 102.147 23.888C102.072 23.9627 101.976 24 101.859 24H100.147C99.9123 24 99.7363 23.8987 99.619 23.696L95.715 17.776V23.6C95.715 23.7067 95.6777 23.8027 95.603 23.888C95.5283 23.9627 95.4323 24 95.315 24H93.395ZM104.895 24C104.788 24 104.692 23.9627 104.607 23.888C104.532 23.8027 104.495 23.7067 104.495 23.6V13.2C104.495 13.0827 104.532 12.9867 104.607 12.912C104.692 12.8373 104.788 12.8 104.895 12.8H107.007C107.124 12.8 107.22 12.8373 107.295 12.912C107.37 12.9867 107.407 13.0827 107.407 13.2V21.584H112.255C112.372 21.584 112.468 21.6267 112.543 21.712C112.618 21.7867 112.655 21.8827 112.655 22V23.6C112.655 23.7067 112.618 23.8027 112.543 23.888C112.468 23.9627 112.372 24 112.255 24H104.895ZM114.442 24C114.335 24 114.239 23.9627 114.154 23.888C114.079 23.8027 114.042 23.7067 114.042 23.6V13.2C114.042 13.0827 114.079 12.9867 114.154 12.912C114.239 12.8373 114.335 12.8 114.442 12.8H116.586C116.703 12.8 116.799 12.8373 116.874 12.912C116.959 12.9867 117.002 13.0827 117.002 13.2V23.6C117.002 23.7173 116.959 23.8133 116.874 23.888C116.799 23.9627 116.703 24 116.586 24H114.442ZM119.629 24C119.523 24 119.427 23.9627 119.341 23.888C119.267 23.8027 119.229 23.7067 119.229 23.6V13.2C119.229 13.0827 119.267 12.9867 119.341 12.912C119.427 12.8373 119.523 12.8 119.629 12.8H121.645C121.763 12.8 121.859 12.8373 121.933 12.912C122.008 12.9867 122.045 13.0827 122.045 13.2V16.752L125.005 13.104C125.133 12.9013 125.341 12.8 125.629 12.8H127.933C128.029 12.8 128.109 12.8373 128.173 12.912C128.237 12.976 128.269 13.0507 128.269 13.136C128.269 13.2107 128.253 13.2747 128.221 13.328L124.381 18.16L128.509 23.472C128.552 23.5147 128.573 23.5787 128.573 23.664C128.573 23.7493 128.541 23.8293 128.477 23.904C128.413 23.968 128.333 24 128.237 24H125.853C125.597 24 125.384 23.8933 125.213 23.68L122.045 19.728V23.6C122.045 23.7173 122.008 23.8133 121.933 23.888C121.859 23.9627 121.763 24 121.645 24H119.629ZM130.239 24C130.132 24 130.036 23.9627 129.951 23.888C129.876 23.8027 129.839 23.7067 129.839 23.6V13.2C129.839 13.0827 129.876 12.9867 129.951 12.912C130.036 12.8373 130.132 12.8 130.239 12.8H132.351C132.468 12.8 132.564 12.8373 132.639 12.912C132.713 12.9867 132.751 13.0827 132.751 13.2V21.584H137.599C137.716 21.584 137.812 21.6267 137.887 21.712C137.961 21.7867 137.999 21.8827 137.999 22V23.6C137.999 23.7067 137.961 23.8027 137.887 23.888C137.812 23.9627 137.716 24 137.599 24H130.239ZM138.746 24C138.66 24 138.58 23.968 138.506 23.904C138.442 23.8293 138.41 23.7493 138.41 23.664C138.41 23.6 138.415 23.552 138.426 23.52L142.186 13.248C142.218 13.12 142.287 13.0133 142.394 12.928C142.5 12.8427 142.639 12.8 142.81 12.8H145.178C145.348 12.8 145.487 12.8427 145.594 12.928C145.7 13.0133 145.77 13.12 145.802 13.248L149.546 23.52L149.578 23.664C149.578 23.7493 149.54 23.8293 149.466 23.904C149.402 23.968 149.322 24 149.226 24H147.258C147.002 24 146.831 23.888 146.746 23.664L146.122 22.032H141.85L141.242 23.664C141.156 23.888 140.98 24 140.714 24H138.746ZM145.482 19.728L143.994 15.504L142.506 19.728H145.482ZM151.239 24C151.132 24 151.036 23.9627 150.951 23.888C150.876 23.8027 150.839 23.7067 150.839 23.6V13.2C150.839 13.0827 150.876 12.9867 150.951 12.912C151.036 12.8373 151.132 12.8 151.239 12.8H155.591C156.988 12.8 158.076 13.12 158.855 13.76C159.644 14.3893 160.039 15.2853 160.039 16.448C160.039 17.1947 159.863 17.8293 159.511 18.352C159.159 18.8747 158.673 19.2747 158.055 19.552L160.247 23.488C160.279 23.552 160.295 23.6107 160.295 23.664C160.295 23.7493 160.257 23.8293 160.183 23.904C160.119 23.968 160.044 24 159.959 24H157.831C157.521 24 157.303 23.856 157.175 23.568L155.351 20.048H153.719V23.6C153.719 23.7173 153.676 23.8133 153.591 23.888C153.516 23.9627 153.42 24 153.303 24H151.239ZM155.559 17.776C156.049 17.776 156.423 17.6587 156.679 17.424C156.935 17.1787 157.063 16.8427 157.063 16.416C157.063 15.9893 156.935 15.6533 156.679 15.408C156.433 15.152 156.06 15.024 155.559 15.024H153.719V17.776H155.559ZM161.853 24C161.736 24 161.635 23.9627 161.549 23.888C161.475 23.8133 161.437 23.7173 161.437 23.6V22.464C161.437 22.144 161.571 21.8827 161.837 21.68L163.501 20.048C164.472 19.3013 165.208 18.72 165.709 18.304C166.211 17.888 166.589 17.5093 166.845 17.168C167.101 16.8267 167.229 16.5013 167.229 16.192C167.229 15.3493 166.813 14.928 165.981 14.928C165.544 14.928 165.208 15.0613 164.973 15.328C164.739 15.584 164.584 15.9093 164.509 16.304C164.445 16.5493 164.264 16.672 163.965 16.672H161.965C161.869 16.672 161.789 16.64 161.725 16.576C161.661 16.512 161.629 16.432 161.629 16.336C161.651 15.6533 161.837 15.0293 162.189 14.464C162.552 13.888 163.059 13.4347 163.709 13.104C164.371 12.7627 165.128 12.592 165.981 12.592C166.877 12.592 167.645 12.736 168.285 13.024C168.925 13.312 169.411 13.7173 169.741 14.24C170.072 14.7627 170.237 15.3707 170.237 16.064C170.237 16.8107 170.003 17.4933 169.533 18.112C169.075 18.72 168.371 19.3813 167.421 20.096L165.949 21.584H170.061C170.179 21.584 170.275 21.6213 170.349 21.696C170.435 21.7707 170.477 21.8667 170.477 21.984V23.6C170.477 23.7173 170.435 23.8133 170.349 23.888C170.275 23.9627 170.179 24 170.061 24H161.853ZM177.333 24C177.227 24 177.131 23.9627 177.045 23.888C176.971 23.8027 176.933 23.7067 176.933 23.6V21.792H171.957C171.84 21.792 171.744 21.7547 171.669 21.68C171.595 21.6053 171.557 21.5093 171.557 21.392V19.872C171.557 19.712 171.616 19.5467 171.733 19.376L176.389 13.072C176.539 12.8907 176.736 12.8 176.981 12.8H179.317C179.435 12.8 179.531 12.8373 179.605 12.912C179.68 12.9867 179.717 13.0827 179.717 13.2V19.408H181.125C181.253 19.408 181.355 19.4507 181.429 19.536C181.504 19.6107 181.541 19.7013 181.541 19.808V21.392C181.541 21.5093 181.504 21.6053 181.429 21.68C181.355 21.7547 181.259 21.792 181.141 21.792H179.717V23.6C179.717 23.7067 179.68 23.8027 179.605 23.888C179.531 23.9627 179.435 24 179.317 24H177.333ZM176.997 19.52V15.744L174.309 19.52H176.997Z" fill="white"/>
</svg>
